<svg width="839" height="247" viewBox="0 0 839 247" fill="none" xmlns="http://www.w3.org/2000/svg">
<path d="M183.5 123.5C183.5 157.35 177.663 187.878 168.322 209.85C163.65 220.84 158.151 229.574 152.172 235.523C146.203 241.461 139.896 244.5 133.5 244.5C127.104 244.5 120.797 241.461 114.828 235.523C108.849 229.574 103.35 220.84 98.6776 209.85C89.3375 187.878 83.5 157.35 83.5 123.5C83.5 89.6496 89.3375 59.122 98.6776 37.1504C103.35 26.1598 108.849 17.4264 114.828 11.4775C120.797 5.53868 127.104 2.5 133.5 2.5C139.896 2.5 146.203 5.53868 152.172 11.4775C158.151 17.4264 163.65 26.1598 168.322 37.1504C177.663 59.122 183.5 89.6496 183.5 123.5Z" stroke="black" stroke-width="5"/>
<path d="M158.204 81.915C187.519 98.8403 211.038 119.159 225.396 138.234C232.578 147.776 237.392 156.905 239.555 165.057C241.713 173.196 241.191 180.177 237.993 185.716C234.795 191.255 229.01 195.198 220.882 197.398C212.741 199.602 202.428 199.997 190.574 198.548C166.876 195.651 137.519 185.443 108.204 168.518C78.8888 151.592 55.3699 131.273 41.012 112.199C33.8299 102.657 29.0162 93.5279 26.8537 85.3755C24.695 77.237 25.217 70.2554 28.4151 64.7163C31.6131 59.1772 37.3983 55.2343 45.5258 53.0346C53.6672 50.8311 63.9802 50.4353 75.8343 51.8844C99.5324 54.7814 128.889 64.9898 158.204 81.915Z" stroke="black" stroke-width="5"/>
<path d="M158.204 168.518C128.889 185.443 99.5324 195.651 75.8343 198.548C63.9801 199.997 53.6671 199.602 45.5258 197.398C37.3982 195.198 31.613 191.255 28.415 185.716C25.217 180.177 24.6949 173.196 26.8537 165.057C29.0161 156.905 33.8299 147.776 41.0119 138.234C55.3698 119.159 78.8887 98.8403 108.204 81.9151C137.519 64.9898 166.876 54.7815 190.574 51.8845C202.428 50.4353 212.741 50.8311 220.882 53.0346C229.01 55.2343 234.795 59.1772 237.993 64.7163C241.191 70.2555 241.713 77.237 239.554 85.3755C237.392 93.5279 232.578 102.657 225.396 112.199C211.038 131.273 187.519 151.592 158.204 168.518Z" stroke="black" stroke-width="5"/>
<circle cx="133.5" cy="124.5" r="18" fill="#40BF8E" stroke="black" stroke-width="5"/>
<path d="M312.783 102.267C315.137 102.267 317.063 102.089 318.561 101.732C320.13 101.304 321.379 100.769 322.306 100.127C323.233 99.4137 323.875 98.5933 324.232 97.666C324.589 96.7387 324.767 95.7043 324.767 94.563C324.767 92.1377 323.626 90.1403 321.343 88.571C319.06 86.9303 315.137 85.1827 309.573 83.328C307.148 82.472 304.722 81.509 302.297 80.439C299.872 79.2977 297.696 77.9067 295.77 76.266C293.844 74.554 292.275 72.521 291.062 70.167C289.849 67.7417 289.243 64.817 289.243 61.393C289.243 57.969 289.885 54.9017 291.169 52.191C292.453 49.409 294.272 47.055 296.626 45.129C298.98 43.203 301.833 41.7407 305.186 40.742C308.539 39.672 312.319 39.137 316.528 39.137C321.521 39.137 325.837 39.672 329.475 40.742C333.113 41.812 336.109 42.989 338.463 44.273L333.648 57.434C331.579 56.364 329.261 55.4367 326.693 54.652C324.196 53.796 321.165 53.368 317.598 53.368C313.603 53.368 310.714 53.9387 308.931 55.08C307.219 56.15 306.363 57.8263 306.363 60.109C306.363 61.4643 306.684 62.6057 307.326 63.533C307.968 64.4603 308.86 65.3163 310.001 66.101C311.214 66.8143 312.569 67.492 314.067 68.134C315.636 68.7047 317.348 69.311 319.203 69.953C323.055 71.3797 326.408 72.8063 329.261 74.233C332.114 75.5883 334.468 77.1933 336.323 79.048C338.249 80.9027 339.676 83.0783 340.603 85.575C341.53 88.0717 341.994 91.1033 341.994 94.67C341.994 101.589 339.569 106.975 334.718 110.827C329.867 114.608 322.556 116.498 312.783 116.498C309.502 116.498 306.541 116.284 303.902 115.856C301.263 115.499 298.909 115.036 296.84 114.465C294.843 113.894 293.095 113.288 291.597 112.646C290.17 112.004 288.958 111.398 287.959 110.827L292.667 97.559C294.878 98.7717 297.589 99.8773 300.799 100.876C304.08 101.803 308.075 102.267 312.783 102.267ZM377.093 39.993C388.15 39.993 396.639 41.9547 402.559 45.878C408.48 49.73 411.44 56.0787 411.44 64.924C411.44 73.8407 408.444 80.2963 402.452 84.291C396.46 88.2143 387.9 90.176 376.772 90.176H371.529V115H354.837V41.919C358.475 41.2057 362.327 40.7063 366.393 40.421C370.459 40.1357 374.026 39.993 377.093 39.993ZM378.163 54.224C376.951 54.224 375.738 54.2597 374.525 54.331C373.384 54.4023 372.385 54.4737 371.529 54.545V75.945H376.772C382.55 75.945 386.902 75.1603 389.826 73.591C392.751 72.0217 394.213 69.097 394.213 64.817C394.213 62.7483 393.821 61.0363 393.036 59.681C392.323 58.3257 391.253 57.2557 389.826 56.471C388.471 55.615 386.795 55.0443 384.797 54.759C382.8 54.4023 380.589 54.224 378.163 54.224ZM469.091 40.849C470.375 43.203 471.837 46.1277 473.478 49.623C475.19 53.047 476.937 56.792 478.721 60.858C480.575 64.8527 482.394 68.9543 484.178 73.163C485.961 77.3717 487.637 81.3307 489.207 85.04C490.776 81.3307 492.452 77.3717 494.236 73.163C496.019 68.9543 497.802 64.8527 499.586 60.858C501.44 56.792 503.188 53.047 504.829 49.623C506.541 46.1277 508.039 43.203 509.323 40.849H524.517C525.23 45.771 525.872 51.2993 526.443 57.434C527.085 63.4973 527.62 69.846 528.048 76.48C528.547 83.0427 528.975 89.641 529.332 96.275C529.76 102.909 530.116 109.151 530.402 115H514.138C513.924 107.795 513.638 99.9487 513.282 91.46C512.925 82.9713 512.39 74.4113 511.677 65.78C510.393 68.776 508.966 72.093 507.397 75.731C505.827 79.369 504.258 83.007 502.689 86.645C501.191 90.283 499.728 93.7783 498.302 97.131C496.875 100.412 495.662 103.23 494.664 105.584H483.001C482.002 103.23 480.789 100.412 479.363 97.131C477.936 93.7783 476.438 90.283 474.869 86.645C473.371 83.007 471.837 79.369 470.268 75.731C468.698 72.093 467.272 68.776 465.988 65.78C465.274 74.4113 464.739 82.9713 464.383 91.46C464.026 99.9487 463.741 107.795 463.527 115H447.263C447.548 109.151 447.869 102.909 448.226 96.275C448.654 89.641 449.082 83.0427 449.51 76.48C450.009 69.846 450.544 63.4973 451.115 57.434C451.757 51.2993 452.434 45.771 453.148 40.849H469.091ZM541.686 87.287C541.686 82.2937 542.435 77.9423 543.933 74.233C545.502 70.4523 547.535 67.3137 550.032 64.817C552.529 62.3203 555.382 60.43 558.592 59.146C561.873 57.862 565.226 57.22 568.65 57.22C576.639 57.22 582.952 59.681 587.589 64.603C592.226 69.4537 594.544 76.6227 594.544 86.11C594.544 87.0373 594.508 88.0717 594.437 89.213C594.366 90.283 594.294 91.246 594.223 92.102H558.057C558.414 95.3833 559.947 97.987 562.658 99.913C565.369 101.839 569.007 102.802 573.572 102.802C576.497 102.802 579.35 102.552 582.132 102.053C584.985 101.482 587.304 100.805 589.087 100.02L591.227 112.967C590.371 113.395 589.23 113.823 587.803 114.251C586.376 114.679 584.771 115.036 582.988 115.321C581.276 115.678 579.421 115.963 577.424 116.177C575.427 116.391 573.429 116.498 571.432 116.498C566.367 116.498 561.945 115.749 558.164 114.251C554.455 112.753 551.352 110.72 548.855 108.152C546.43 105.513 544.611 102.41 543.398 98.843C542.257 95.2763 541.686 91.4243 541.686 87.287ZM579.136 81.188C579.065 79.8327 578.815 78.513 578.387 77.229C578.03 75.945 577.424 74.8037 576.568 73.805C575.783 72.8063 574.749 71.986 573.465 71.344C572.252 70.702 570.719 70.381 568.864 70.381C567.081 70.381 565.547 70.702 564.263 71.344C562.979 71.9147 561.909 72.6993 561.053 73.698C560.197 74.6967 559.519 75.8737 559.02 77.229C558.592 78.513 558.271 79.8327 558.057 81.188H579.136ZM620.436 86.431C620.436 91.353 621.542 95.312 623.753 98.308C625.965 101.304 629.246 102.802 633.597 102.802C635.024 102.802 636.344 102.766 637.556 102.695C638.769 102.552 639.768 102.41 640.552 102.267V73.27C639.554 72.628 638.234 72.093 636.593 71.665C635.024 71.237 633.419 71.023 631.778 71.023C624.217 71.023 620.436 76.159 620.436 86.431ZM656.495 113.181C655.069 113.609 653.428 114.037 651.573 114.465C649.719 114.822 647.757 115.143 645.688 115.428C643.691 115.713 641.622 115.927 639.482 116.07C637.414 116.284 635.416 116.391 633.49 116.391C628.854 116.391 624.716 115.713 621.078 114.358C617.44 113.003 614.373 111.077 611.876 108.58C609.38 106.012 607.454 102.945 606.098 99.378C604.814 95.74 604.172 91.674 604.172 87.18C604.172 82.6147 604.743 78.513 605.884 74.875C607.026 71.1657 608.666 68.027 610.806 65.459C612.946 62.891 615.55 60.9293 618.617 59.574C621.756 58.2187 625.323 57.541 629.317 57.541C631.529 57.541 633.49 57.755 635.202 58.183C636.986 58.611 638.769 59.2173 640.552 60.002V34.536L656.495 31.968V113.181ZM687.367 115H671.424V58.718H687.367V115ZM688.865 42.454C688.865 45.3787 687.902 47.697 685.976 49.409C684.121 51.0497 681.91 51.87 679.342 51.87C676.774 51.87 674.527 51.0497 672.601 49.409C670.746 47.697 669.819 45.3787 669.819 42.454C669.819 39.5293 670.746 37.2467 672.601 35.606C674.527 33.894 676.774 33.038 679.342 33.038C681.91 33.038 684.121 33.894 685.976 35.606C687.902 37.2467 688.865 39.5293 688.865 42.454ZM699.678 86.859C699.678 82.793 700.32 78.9767 701.604 75.41C702.96 71.772 704.886 68.6333 707.382 65.994C709.879 63.2833 712.911 61.1433 716.477 59.574C720.044 58.0047 724.11 57.22 728.675 57.22C731.671 57.22 734.418 57.5053 736.914 58.076C739.411 58.5753 741.836 59.3243 744.19 60.323L740.873 73.056C739.375 72.4853 737.735 71.986 735.951 71.558C734.168 71.13 732.171 70.916 729.959 70.916C725.251 70.916 721.72 72.3783 719.366 75.303C717.084 78.2277 715.942 82.0797 715.942 86.859C715.942 91.9237 717.012 95.847 719.152 98.629C721.364 101.411 725.18 102.802 730.601 102.802C732.527 102.802 734.596 102.624 736.807 102.267C739.019 101.91 741.052 101.34 742.906 100.555L745.153 113.609C743.299 114.394 740.98 115.071 738.198 115.642C735.416 116.213 732.349 116.498 728.996 116.498C723.86 116.498 719.438 115.749 715.728 114.251C712.019 112.682 708.952 110.577 706.526 107.938C704.172 105.299 702.425 102.196 701.283 98.629C700.213 94.991 699.678 91.0677 699.678 86.859ZM774.643 103.872C776.213 103.872 777.711 103.836 779.137 103.765C780.564 103.694 781.705 103.587 782.561 103.444V91.353C781.919 91.2103 780.956 91.0677 779.672 90.925C778.388 90.7823 777.211 90.711 776.141 90.711C774.643 90.711 773.217 90.818 771.861 91.032C770.577 91.1747 769.436 91.4957 768.437 91.995C767.439 92.4943 766.654 93.172 766.083 94.028C765.513 94.884 765.227 95.954 765.227 97.238C765.227 99.7347 766.048 101.482 767.688 102.481C769.4 103.408 771.719 103.872 774.643 103.872ZM773.359 57.22C778.067 57.22 781.991 57.755 785.129 58.825C788.268 59.895 790.765 61.4287 792.619 63.426C794.545 65.4233 795.901 67.8487 796.685 70.702C797.47 73.5553 797.862 76.7297 797.862 80.225V113.395C795.58 113.894 792.405 114.465 788.339 115.107C784.273 115.82 779.351 116.177 773.573 116.177C769.935 116.177 766.618 115.856 763.622 115.214C760.698 114.572 758.165 113.538 756.025 112.111C753.885 110.613 752.245 108.687 751.103 106.333C749.962 103.979 749.391 101.09 749.391 97.666C749.391 94.3847 750.033 91.6027 751.317 89.32C752.673 87.0373 754.456 85.2183 756.667 83.863C758.879 82.5077 761.411 81.5447 764.264 80.974C767.118 80.332 770.078 80.011 773.145 80.011C775.214 80.011 777.033 80.118 778.602 80.332C780.243 80.4747 781.563 80.6887 782.561 80.974V79.476C782.561 76.7653 781.741 74.5897 780.1 72.949C778.46 71.3083 775.606 70.488 771.54 70.488C768.83 70.488 766.155 70.702 763.515 71.13C760.876 71.4867 758.593 72.0217 756.667 72.735L754.634 59.895C755.562 59.6097 756.703 59.3243 758.058 59.039C759.485 58.6823 761.019 58.397 762.659 58.183C764.3 57.8977 766.012 57.6837 767.795 57.541C769.65 57.327 771.505 57.22 773.359 57.22ZM834.749 116.07C830.112 115.999 826.332 115.499 823.407 114.572C820.554 113.645 818.271 112.361 816.559 110.72C814.918 109.008 813.777 106.975 813.135 104.621C812.564 102.196 812.279 99.485 812.279 96.489V34.536L828.222 31.968V93.279C828.222 94.7057 828.329 95.9897 828.543 97.131C828.757 98.2723 829.149 99.2353 829.72 100.02C830.362 100.805 831.254 101.447 832.395 101.946C833.536 102.445 835.07 102.766 836.996 102.909L834.749 116.07ZM328.726 150.689C320.951 150.689 315.315 152.865 311.82 157.216C308.396 161.496 306.684 167.381 306.684 174.871C306.684 178.509 307.112 181.826 307.968 184.822C308.824 187.747 310.108 190.279 311.82 192.419C313.532 194.559 315.672 196.235 318.24 197.448C320.808 198.589 323.804 199.16 327.228 199.16C329.083 199.16 330.652 199.124 331.936 199.053C333.291 198.982 334.468 198.839 335.467 198.625V172.838H352.159V209.539C350.162 210.324 346.952 211.144 342.529 212C338.106 212.927 332.649 213.391 326.158 213.391C320.594 213.391 315.529 212.535 310.964 210.823C306.47 209.111 302.618 206.614 299.408 203.333C296.198 200.052 293.701 196.021 291.918 191.242C290.206 186.463 289.35 181.006 289.35 174.871C289.35 168.665 290.313 163.172 292.239 158.393C294.165 153.614 296.804 149.583 300.157 146.302C303.51 142.949 307.433 140.417 311.927 138.705C316.492 136.993 321.343 136.137 326.479 136.137C329.974 136.137 333.113 136.387 335.895 136.886C338.748 137.314 341.174 137.849 343.171 138.491C345.24 139.062 346.916 139.668 348.2 140.31C349.555 140.952 350.518 141.451 351.089 141.808L346.274 155.183C343.991 153.97 341.352 152.936 338.356 152.08C335.431 151.153 332.221 150.689 328.726 150.689ZM400.539 169.842C399.112 169.485 397.436 169.129 395.51 168.772C393.584 168.344 391.515 168.13 389.304 168.13C388.305 168.13 387.093 168.237 385.666 168.451C384.311 168.594 383.276 168.772 382.563 168.986V212H366.62V158.714C369.473 157.715 372.826 156.788 376.678 155.932C380.601 155.005 384.953 154.541 389.732 154.541C390.588 154.541 391.622 154.612 392.835 154.755C394.048 154.826 395.26 154.969 396.473 155.183C397.686 155.326 398.898 155.54 400.111 155.825C401.324 156.039 402.358 156.324 403.214 156.681L400.539 169.842ZM463.36 183.752C463.36 188.175 462.718 192.241 461.434 195.95C460.15 199.588 458.295 202.727 455.87 205.366C453.444 207.934 450.52 209.931 447.096 211.358C443.743 212.785 439.962 213.498 435.754 213.498C431.616 213.498 427.836 212.785 424.412 211.358C421.059 209.931 418.17 207.934 415.745 205.366C413.319 202.727 411.429 199.588 410.074 195.95C408.718 192.241 408.041 188.175 408.041 183.752C408.041 179.329 408.718 175.299 410.074 171.661C411.5 168.023 413.426 164.92 415.852 162.352C418.348 159.784 421.273 157.787 424.626 156.36C428.05 154.933 431.759 154.22 435.754 154.22C439.82 154.22 443.529 154.933 446.882 156.36C450.306 157.787 453.23 159.784 455.656 162.352C458.081 164.92 459.971 168.023 461.327 171.661C462.682 175.299 463.36 179.329 463.36 183.752ZM447.096 183.752C447.096 178.83 446.097 174.978 444.1 172.196C442.174 169.343 439.392 167.916 435.754 167.916C432.116 167.916 429.298 169.343 427.301 172.196C425.303 174.978 424.305 178.83 424.305 183.752C424.305 188.674 425.303 192.597 427.301 195.522C429.298 198.375 432.116 199.802 435.754 199.802C439.392 199.802 442.174 198.375 444.1 195.522C446.097 192.597 447.096 188.674 447.096 183.752ZM523.753 210.074C521.042 210.859 517.547 211.572 513.267 212.214C508.987 212.927 504.493 213.284 499.785 213.284C495.005 213.284 491.011 212.642 487.801 211.358C484.662 210.074 482.165 208.291 480.311 206.008C478.456 203.654 477.136 200.872 476.352 197.662C475.567 194.452 475.175 190.921 475.175 187.069V155.718H491.118V185.143C491.118 190.279 491.795 193.988 493.151 196.271C494.506 198.554 497.038 199.695 500.748 199.695C501.889 199.695 503.102 199.659 504.386 199.588C505.67 199.445 506.811 199.303 507.81 199.16V155.718H523.753V210.074ZM574.778 184.287C574.778 179.365 573.672 175.442 571.461 172.517C569.249 169.521 565.968 168.023 561.617 168.023C560.19 168.023 558.87 168.094 557.658 168.237C556.445 168.308 555.446 168.415 554.662 168.558V197.341C555.66 197.983 556.944 198.518 558.514 198.946C560.154 199.374 561.795 199.588 563.436 199.588C570.997 199.588 574.778 194.488 574.778 184.287ZM591.042 183.859C591.042 188.21 590.507 192.169 589.437 195.736C588.367 199.303 586.797 202.37 584.729 204.938C582.66 207.506 580.092 209.503 577.025 210.93C573.957 212.357 570.426 213.07 566.432 213.07C564.22 213.07 562.152 212.856 560.226 212.428C558.3 212 556.445 211.394 554.662 210.609V231.795H538.719V157.644C540.145 157.216 541.786 156.824 543.641 156.467C545.495 156.039 547.421 155.682 549.419 155.397C551.487 155.112 553.556 154.898 555.625 154.755C557.765 154.541 559.798 154.434 561.724 154.434C566.36 154.434 570.498 155.147 574.136 156.574C577.774 157.929 580.841 159.891 583.338 162.459C585.834 164.956 587.725 168.023 589.009 171.661C590.364 175.299 591.042 179.365 591.042 183.859Z" fill="black"/>
<path d="M173.5 22C173.5 30.1531 167.315 36.5 160 36.5C152.685 36.5 146.5 30.1531 146.5 22C146.5 13.8469 152.685 7.5 160 7.5C167.315 7.5 173.5 13.8469 173.5 22Z" fill="#40BF8E" stroke="black" stroke-width="5"/>
<path d="M218.5 197C218.5 204.069 213.192 209.5 207 209.5C200.808 209.5 195.5 204.069 195.5 197C195.5 189.931 200.808 184.5 207 184.5C213.192 184.5 218.5 189.931 218.5 197Z" fill="#40BF8E" stroke="black" stroke-width="5"/>
<path d="M42.5 151.5C42.5 157.223 38.2784 161.5 33.5 161.5C28.7216 161.5 24.5 157.223 24.5 151.5C24.5 145.777 28.7216 141.5 33.5 141.5C38.2784 141.5 42.5 145.777 42.5 151.5Z" fill="#40BF8E" stroke="black" stroke-width="5"/>
</svg>
