<svg width="955" height="674" viewBox="0 0 955 674" fill="none" xmlns="http://www.w3.org/2000/svg">
<path d="M188.765 351.028L176.184 222.887L138.668 224.13L168.366 350.67C165.943 352.624 164.199 355.242 163.366 358.174C162.534 361.106 162.653 364.213 163.708 367.078C164.763 369.944 166.703 372.431 169.269 374.208C171.835 375.985 174.905 376.967 178.068 377.023C181.231 377.078 184.336 376.205 186.968 374.519C189.6 372.833 191.633 370.415 192.796 367.589C193.96 364.762 194.197 361.662 193.476 358.703C192.756 355.743 191.112 353.066 188.765 351.028L188.765 351.028Z" fill="#FFB8B8"/>
<path d="M901.984 636.636C901.638 649.046 899.474 661.348 895.557 673.178C895.467 673.453 895.373 673.724 895.28 673.998H871.292C871.318 673.749 871.343 673.477 871.368 673.178C872.967 655.513 882.188 547.994 871.164 529.607C872.129 531.1 903.839 580.503 901.984 636.636Z" fill="#F0F0F0"/>
<path d="M898.134 672.286C897.714 672.86 897.277 673.434 896.831 674H859.201C859.487 673.512 859.817 672.937 860.2 672.286C866.417 661.505 884.817 629.28 901.898 595.861C920.254 559.954 937.093 522.686 935.675 509.196C936.111 512.239 948.809 604.979 898.134 672.286Z" fill="#F0F0F0"/>
<path d="M71.6074 617.81C72.1228 636.293 75.3454 654.614 81.1804 672.232C81.3097 672.641 81.4533 673.044 81.593 673.453H117.313C117.276 673.086 117.237 672.677 117.2 672.232C114.818 645.924 101.086 485.806 117.505 458.424C116.068 460.645 68.8325 534.218 71.6074 617.81Z" fill="#F0F0F0"/>
<path d="M74.2881 672.233C74.5869 672.641 74.8974 673.05 75.2156 673.453H102.012C101.809 673.105 101.574 672.696 101.301 672.233C96.874 664.556 83.7706 641.604 71.6076 617.81C58.5417 592.24 46.5444 565.701 47.5547 556.096C47.243 558.261 38.1978 624.303 74.2881 672.233Z" fill="#F0F0F0"/>
<path d="M848.102 539.665H475.184C473.354 539.663 471.599 538.963 470.304 537.72C469.009 536.476 468.281 534.79 468.279 533.031V444.15C468.281 442.391 469.009 440.705 470.304 439.461C471.599 438.218 473.354 437.518 475.184 437.515H848.102C849.932 437.518 851.687 438.218 852.982 439.461C854.276 440.705 855.005 442.391 855.007 444.15V533.029C855.005 534.788 854.277 536.475 852.982 537.719C851.688 538.963 849.933 539.663 848.102 539.665ZM475.184 440.164C474.087 440.166 473.036 440.586 472.26 441.332C471.484 442.077 471.047 443.087 471.045 444.142V533.021C471.047 534.075 471.484 535.085 472.26 535.831C473.036 536.576 474.087 536.996 475.184 536.998H848.102C849.199 536.996 850.251 536.576 851.026 535.831C851.802 535.085 852.239 534.075 852.241 533.021V444.15C852.239 443.096 851.802 442.085 851.026 441.34C850.251 440.594 849.199 440.175 848.102 440.173L475.184 440.164Z" fill="#3F3D56"/>
<path d="M439.984 646.939C455.52 646.939 468.114 634.838 468.114 619.911C468.114 604.984 455.52 592.883 439.984 592.883C424.448 592.883 411.854 604.984 411.854 619.911C411.854 634.838 424.448 646.939 439.984 646.939Z" fill="#E6E6E6"/>
<path d="M504.954 602.825C503.71 602.825 502.518 603.3 501.639 604.145C500.76 604.989 500.266 606.135 500.266 607.33C500.266 608.524 500.76 609.67 501.639 610.515C502.518 611.36 503.71 611.834 504.954 611.834H725.982C726.598 611.835 727.208 611.72 727.777 611.495C728.346 611.269 728.864 610.939 729.3 610.521C729.736 610.104 730.082 609.608 730.319 609.062C730.556 608.516 730.678 607.93 730.679 607.339C730.681 606.747 730.561 606.161 730.326 605.614C730.092 605.067 729.747 604.57 729.313 604.151C728.878 603.732 728.362 603.399 727.794 603.172C727.226 602.944 726.616 602.826 726.001 602.825H504.954Z" fill="#E6E6E6"/>
<path d="M504.954 629.855C503.71 629.852 502.517 630.324 501.636 631.167C500.755 632.011 500.259 633.155 500.256 634.35C500.254 635.545 500.745 636.691 501.623 637.538C502.5 638.384 503.692 638.861 504.935 638.863H600.063C601.307 638.863 602.499 638.389 603.378 637.544C604.257 636.699 604.751 635.553 604.751 634.359C604.751 633.164 604.257 632.018 603.378 631.174C602.499 630.329 601.307 629.855 600.063 629.855H504.954Z" fill="#E6E6E6"/>
<path d="M533.127 515.187C548.663 515.187 561.258 503.086 561.258 488.159C561.258 473.232 548.663 461.131 533.127 461.131C517.591 461.131 504.997 473.232 504.997 488.159C504.997 503.086 517.591 515.187 533.127 515.187Z" fill="#E6E6E6"/>
<path d="M598.097 471.074C596.853 471.074 595.661 471.548 594.782 472.393C593.903 473.238 593.409 474.383 593.409 475.578C593.409 476.773 593.903 477.918 594.782 478.763C595.661 479.608 596.853 480.082 598.097 480.082H819.125C820.368 480.082 821.561 479.608 822.44 478.763C823.319 477.918 823.813 476.773 823.813 475.578C823.813 474.383 823.319 473.238 822.44 472.393C821.561 471.548 820.368 471.074 819.125 471.074H598.097Z" fill="#E6E6E6"/>
<path d="M598.097 498.103C596.853 498.103 595.661 498.577 594.782 499.422C593.903 500.267 593.409 501.412 593.409 502.607C593.409 503.802 593.903 504.947 594.782 505.792C595.661 506.637 596.853 507.111 598.097 507.111H693.206C694.45 507.111 695.642 506.637 696.521 505.792C697.4 504.947 697.894 503.802 697.894 502.607C697.894 501.412 697.4 500.267 696.521 499.422C695.642 498.577 694.45 498.103 693.206 498.103H598.097Z" fill="#E6E6E6"/>
<path d="M775.657 319.665H402.74C400.909 319.662 399.154 318.963 397.86 317.719C396.565 316.475 395.837 314.789 395.834 313.03V6.63485C395.837 4.87589 396.565 3.18963 397.86 1.94586C399.154 0.702091 400.909 0.00233261 402.74 3.05176e-05H775.657C777.488 0.00233261 779.243 0.702091 780.538 1.94586C781.832 3.18963 782.56 4.87589 782.563 6.63485V313.029C782.561 314.788 781.832 316.474 780.538 317.718C779.243 318.962 777.488 319.661 775.657 319.663V319.665ZM402.74 2.64873C401.643 2.65103 400.591 3.07082 399.815 3.81623C399.04 4.56164 398.603 5.57197 398.6 6.62614V313.029C398.603 314.083 399.04 315.093 399.815 315.839C400.591 316.584 401.643 317.004 402.74 317.006H775.657C776.755 317.004 777.806 316.584 778.582 315.839C779.358 315.093 779.795 314.083 779.797 313.029V6.63485C779.795 5.58068 779.358 4.57035 778.582 3.82494C777.806 3.07952 776.754 2.65974 775.657 2.65744L402.74 2.64873Z" fill="#3F3D56"/>
<path d="M460.683 80.9068C476.219 80.9068 488.813 68.806 488.813 53.879C488.813 38.952 476.219 26.8513 460.683 26.8513C445.147 26.8513 432.552 38.952 432.552 53.879C432.552 68.806 445.147 80.9068 460.683 80.9068Z" fill="#536DFE"/>
<path d="M525.653 35.8601C524.409 35.8601 523.217 36.3347 522.337 37.1794C521.458 38.0242 520.964 39.1699 520.964 40.3645C520.964 41.5592 521.458 42.7049 522.337 43.5497C523.217 44.3944 524.409 44.869 525.653 44.869H746.681C747.924 44.869 749.117 44.3944 749.996 43.5497C750.875 42.7049 751.369 41.5592 751.369 40.3645C751.369 39.1699 750.875 38.0242 749.996 37.1794C749.117 36.3347 747.924 35.8601 746.681 35.8601H525.653Z" fill="#CCCCCC"/>
<path d="M525.653 62.8891C524.409 62.8891 523.217 63.3637 522.337 64.2085C521.458 65.0532 520.964 66.1989 520.964 67.3936C520.964 68.5882 521.458 69.7339 522.337 70.5787C523.217 71.4234 524.409 71.898 525.653 71.898H620.762C622.005 71.898 623.198 71.4234 624.077 70.5787C624.956 69.7339 625.45 68.5882 625.45 67.3936C625.45 66.1989 624.956 65.0532 624.077 64.2085C623.198 63.3637 622.005 62.8891 620.762 62.8891H525.653Z" fill="#CCCCCC"/>
<path d="M301.667 647.973H273.206L256.389 420.514L255.742 478.311L193.647 637.408L169.067 618.764L209.817 460.289L190.413 372.04H317.191L301.667 647.973Z" fill="#2F2E41"/>
<path d="M256.389 91.135C274.965 91.135 290.024 76.6664 290.024 58.8185C290.024 40.9706 274.965 26.502 256.389 26.502C237.813 26.502 222.754 40.9706 222.754 58.8185C222.754 76.6664 237.813 91.135 256.389 91.135Z" fill="#FFB8B8"/>
<path d="M321.073 389.441C266.121 375.893 214.562 366.763 182.652 383.226C188.241 326.783 181.776 254.732 162.601 179.427C156.373 154.967 160.597 132.928 183.299 120.344L213.7 103.564L260.271 104.807L284.57 117.724C296.452 123.428 306.072 132.703 311.969 144.139C317.865 155.575 319.716 168.547 317.24 181.085C304.183 247.094 311.239 318.337 321.073 389.441Z" fill="#3F3D56"/>
<path d="M195.589 231.587L134.787 227.859C139.537 170.39 153.056 138.975 173.597 128.423L195.589 153.282V231.587Z" fill="#3F3D56"/>
<path d="M864.258 279.917H491.339C489.508 279.915 487.753 279.215 486.458 277.971C485.164 276.727 484.436 275.041 484.434 273.282V116.041C484.436 114.282 485.164 112.596 486.458 111.352C487.753 110.108 489.508 109.408 491.339 109.406H864.258C866.089 109.408 867.844 110.108 869.138 111.352C870.433 112.596 871.161 114.282 871.163 116.041V273.282C871.161 275.041 870.433 276.727 869.138 277.971C867.844 279.215 866.089 279.915 864.258 279.917Z" fill="#536DFE"/>
<path d="M567.285 164.212C566.041 164.212 564.849 164.687 563.97 165.532C563.091 166.377 562.597 167.522 562.597 168.717C562.597 169.912 563.091 171.057 563.97 171.902C564.849 172.747 566.041 173.221 567.285 173.221H788.314C789.558 173.221 790.75 172.747 791.629 171.902C792.509 171.057 793.003 169.912 793.003 168.717C793.003 167.522 792.509 166.377 791.629 165.532C790.75 164.687 789.558 164.212 788.314 164.212H567.285Z" fill="white"/>
<path d="M567.285 190.314C566.041 190.314 564.849 190.789 563.97 191.634C563.091 192.478 562.597 193.624 562.597 194.819C562.597 196.013 563.091 197.159 563.97 198.004C564.849 198.849 566.041 199.323 567.285 199.323H788.314C789.558 199.323 790.75 198.849 791.629 198.004C792.509 197.159 793.003 196.013 793.003 194.819C793.003 193.624 792.509 192.478 791.629 191.634C790.75 190.789 789.558 190.314 788.314 190.314H567.285Z" fill="white"/>
<path d="M567.285 216.1C566.041 216.1 564.849 216.575 563.97 217.42C563.091 218.264 562.597 219.41 562.597 220.605C562.597 221.799 563.091 222.945 563.97 223.79C564.849 224.635 566.041 225.109 567.285 225.109H662.394C663.638 225.109 664.83 224.635 665.709 223.79C666.588 222.945 667.082 221.799 667.082 220.605C667.082 219.41 666.588 218.264 665.709 217.42C664.83 216.575 663.638 216.1 662.394 216.1H567.285Z" fill="white"/>
<path d="M267.857 16.2937C264.724 15.978 261.769 17.5802 258.687 18.2352C252.348 19.5701 245.854 16.8033 239.336 16.827C233.734 17.133 228.284 18.6957 223.424 21.3898C219.494 23.1746 215.907 25.5875 212.816 28.5255C209.709 31.5109 207.899 35.5205 207.755 39.7406C208.186 42.1579 208.109 44.6336 207.528 47.0217C206.871 48.2259 206.091 49.3642 205.199 50.42C204.393 51.6639 203.878 53.0616 203.69 54.516C203.503 55.9704 203.647 57.4466 204.113 58.8421C205.418 61.6067 207.185 64.1483 209.342 66.3669C213.536 71.5363 216.163 77.7261 219.926 83.2125C221.568 85.5939 223.41 87.8424 225.433 89.9355C225.764 90.3063 226.168 90.6112 226.621 90.8329C227.067 90.9835 227.538 91.0494 228.01 91.0268C235.993 91.2456 244.255 91.4146 251.605 88.4055C253.96 87.621 255.959 86.0772 257.264 84.0365C258.324 81.2367 258.516 78.2016 257.819 75.2987C257.484 72.0656 257.561 68.8054 258.046 65.5901C258.08 64.5042 258.542 63.4713 259.34 62.7015C259.943 62.3416 260.634 62.1406 261.343 62.1188C262.053 62.097 262.756 62.255 263.381 62.5771C264.63 63.209 265.994 63.6044 267.398 63.7418C270.152 63.7418 271.895 60.7314 272.451 58.11C272.148 55.7543 272.511 53.3635 273.502 51.1892C274.494 49.015 276.077 47.1378 278.085 45.7552C279.977 43.4476 281.277 40.7439 281.878 37.8635C282.479 34.9831 282.365 32.007 281.545 29.1768C279.73 23.7216 274.173 16.9003 267.857 16.2937Z" fill="#2F2E41"/>
<path d="M754.958 671.417H382.041C380.211 671.415 378.455 670.715 377.161 669.471C375.866 668.228 375.138 666.541 375.136 664.782V575.902C375.138 574.143 375.866 572.457 377.161 571.213C378.455 569.969 380.21 569.269 382.041 569.267H754.958C756.789 569.27 758.544 569.969 759.839 571.213C761.133 572.457 761.862 574.143 761.864 575.902V664.781C761.862 666.54 761.133 668.226 759.839 669.47C758.544 670.714 756.789 671.414 754.958 671.416V671.417ZM382.041 571.916C380.944 571.918 379.892 572.338 379.117 573.083C378.341 573.829 377.904 574.839 377.902 575.893V664.772C377.904 665.827 378.341 666.837 379.117 667.582C379.892 668.328 380.944 668.748 382.041 668.75H754.958C756.056 668.748 757.107 668.328 757.883 667.583C758.659 666.837 759.096 665.827 759.098 664.772V575.902C759.096 574.848 758.659 573.838 757.883 573.092C757.107 572.347 756.056 571.927 754.958 571.925L382.041 571.916Z" fill="#3F3D56"/>
<path d="M332.361 346.056L319.779 217.915L282.263 219.158L311.961 345.698C309.538 347.652 307.794 350.27 306.961 353.202C306.129 356.135 306.248 359.241 307.303 362.106C308.358 364.972 310.298 367.459 312.864 369.236C315.431 371.013 318.5 371.995 321.663 372.051C324.826 372.107 327.931 371.233 330.563 369.547C333.195 367.861 335.228 365.443 336.392 362.617C337.555 359.791 337.792 356.69 337.072 353.731C336.351 350.772 334.708 348.094 332.361 346.056L332.361 346.056Z" fill="#FFB8B8"/>
<path d="M332.715 220.401L275.794 232.83L273.207 143.339L305.548 144.582L332.715 220.401Z" fill="#3F3D56"/>
<path d="M272.306 645.734L313.592 645.732H313.593C320.571 645.733 327.263 648.396 332.197 653.137C337.132 657.878 339.904 664.307 339.904 671.011V671.833L272.307 671.835L272.306 645.734Z" fill="#2F2E41"/>
<path d="M168.612 614.326L203.32 635.809L203.321 635.81C209.187 639.441 213.311 645.162 214.787 651.715C216.262 658.268 214.968 665.115 211.189 670.751L210.726 671.442L153.9 636.269L168.612 614.326Z" fill="#2F2E41"/>
<path d="M955 671.514H0V674H955V671.514Z" fill="#CACACA"/>
</svg>
